# xmcd CD database file
#
# Track frame offsets:
#	150
#	21867
#	38856
#	60364
#	82545
#	110849
#	131273
#	155517
#	175262
#
# Disc length: 2611 seconds
#
# Revision: 2
# Processed by: cddbd v1.5.2PL0 Copyright (c) Steve Scherf et al.
# Submitted via: CDex 1.70beta3
#
DISCID=640a3109
DTITLE=AKIRA JIMBO - JIMBO de COVER
DYEAR=2012
DGENRE=Jazz
TTITLE0=He's A Pirate
TTITLE1=Mission Impossible
TTITLE2=Gymnopedie No.1
TTITLE3=Litertango
TTITLE4=Bolero
TTITLE5=James Bond Theme
TTITLE6=Concierto de Aranjuez
TTITLE7=Phantom Of The Opera
TTITLE8=UEWO MUITE ARUKOU
EXTD=YEAR: 2012
EXTT0=
EXTT1=
EXTT2=
EXTT3=
EXTT4=
EXTT5=
EXTT6=
EXTT7=
EXTT8=
PLAYORDER=
